<svg width="150" height="47" viewBox="0 0 150 47" fill="none" xmlns="http://www.w3.org/2000/svg">
<g clip-path="url(#clip0_111:241)">
<path d="M55.5222 33.2845H58.8633C59.8052 33.2845 60.5909 33.3671 61.2204 33.5323C61.8545 33.6979 62.4545 33.9741 62.9928 34.3481C64.2514 35.2097 64.8807 36.4483 64.8807 38.064C64.888 38.8087 64.7353 39.5463 64.4328 40.2267C64.1349 40.8867 63.694 41.472 63.1421 41.9401C62.6352 42.3615 62.0415 42.6654 61.4035 42.8303C60.7437 43.007 59.897 43.0954 58.8633 43.0954H55.5362C55.644 43.0142 55.7419 42.9208 55.8282 42.8171C55.8824 42.7499 55.9323 42.6793 55.9775 42.6057C56.0264 42.5045 56.0619 42.3973 56.083 42.2869L56.1103 42.083L56.1639 34.3316C56.1622 34.161 56.1204 33.9933 56.0418 33.8419C55.9938 33.7665 55.9386 33.696 55.8769 33.6314C55.8131 33.5609 55.6949 33.4453 55.5222 33.2845ZM57.6138 34.4679V41.8922C57.8264 41.9372 58.0415 41.9691 58.2579 41.988C58.4699 42.0062 58.7025 42.0144 58.9557 42.0144C60.4457 42.0144 61.5479 41.6519 62.2621 40.9269C62.61 40.5733 62.8739 40.1457 63.0341 39.6759C63.2224 39.1666 63.3188 38.6278 63.3186 38.0847C63.3186 36.8972 62.9211 35.9771 62.126 35.3242C61.3309 34.6713 60.2063 34.3448 58.7519 34.3448C58.3691 34.3414 57.9871 34.3827 57.6138 34.4679Z" fill="#545456"/>
<path d="M66.4972 43.0888C66.6154 43.0074 66.7232 42.9117 66.818 42.8039C66.8849 42.7082 66.9364 42.6026 66.9706 42.491C66.9884 42.4402 67.0003 42.3875 67.0061 42.3341C67.0179 42.2692 67.0248 42.2035 67.0267 42.1375V37.6363C67.0267 37.1651 67.0033 36.8521 66.9566 36.6974C66.9098 36.5428 66.7702 36.3435 66.5376 36.0996L67.2172 36.1401C67.3771 36.1404 67.5365 36.1221 67.6923 36.0856C67.8457 36.0501 68.0865 35.9815 68.4123 35.8816V42.1375C68.4143 42.2599 68.4349 42.3813 68.4733 42.4976C68.502 42.604 68.548 42.705 68.6094 42.7965C68.6997 42.9052 68.8021 43.0033 68.9145 43.0888H66.4972ZM66.7958 34.4539C66.7922 34.3282 66.8143 34.2031 66.8607 34.0862C66.907 33.9694 66.9767 33.8632 67.0654 33.7743C67.1529 33.6848 67.258 33.6144 67.3739 33.5675C67.4899 33.5206 67.6143 33.4982 67.7393 33.5018C67.8557 33.5003 67.9711 33.5246 68.0771 33.5728C68.1832 33.6211 68.2773 33.6921 68.3529 33.7809C68.5177 33.9656 68.6061 34.2062 68.6003 34.4539C68.6019 34.5712 68.5787 34.6876 68.5322 34.7953C68.4857 34.903 68.417 34.9997 68.3306 35.079C68.2433 35.1638 68.14 35.2304 68.0267 35.2749C67.9134 35.3194 67.7925 35.3409 67.6708 35.3382C67.5571 35.339 67.4444 35.3171 67.3392 35.2739C67.234 35.2306 67.1384 35.1669 67.058 35.0864C66.9722 35.0055 66.9045 34.9073 66.8593 34.7982C66.8141 34.6892 66.7924 34.5719 66.7958 34.4539Z" fill="#545456"/>
<path d="M72.3373 43.429C72.0387 43.5298 71.83 43.6338 71.7121 43.7436C71.6533 43.7998 71.6071 43.8679 71.5767 43.9434C71.5463 44.0189 71.5323 44.1 71.5356 44.1813C71.5356 44.6107 71.7803 44.9666 72.2696 45.249C72.759 45.5314 73.3701 45.6726 74.1031 45.6726C74.8541 45.6726 75.4427 45.5231 75.8689 45.2242C76.0729 45.0874 76.2387 44.9007 76.3504 44.6818C76.4621 44.4628 76.5161 44.2189 76.5072 43.9732C76.5154 43.5324 76.3522 43.1057 76.052 42.7833C75.7484 42.453 75.3523 42.2878 74.8635 42.2878L74.2928 42.2193C73.5142 42.1472 73.1249 41.8119 73.1249 41.2135C73.1149 41.1083 73.1466 41.0033 73.2132 40.9212C73.3523 40.8128 73.5055 40.7236 73.6684 40.6561C74.2386 40.3748 74.6482 40.0913 74.8973 39.8056C75.1424 39.5311 75.2757 39.1746 75.2709 38.8064C75.2761 38.5766 75.2307 38.3485 75.1381 38.1382C75.0454 37.9278 74.9078 37.7404 74.7348 37.5893C74.3769 37.2672 73.9263 37.1062 73.3831 37.1062C72.9651 37.0938 72.5579 37.2394 72.2424 37.5141C72.0946 37.6391 71.9765 37.7955 71.8966 37.9719C71.8167 38.1483 71.7771 38.3403 71.7806 38.5339C71.7794 38.7511 71.8276 38.9658 71.9216 39.1615C72.0157 39.3572 72.153 39.5289 72.3232 39.6636C72.4585 39.7744 72.6041 39.872 72.7579 39.9551C72.9305 40.0508 73.1752 40.1665 73.4919 40.3019L72.8395 40.9683C72.4359 40.8609 72.0411 40.7229 71.6585 40.5554C71.3921 40.4337 71.1466 40.2707 70.9311 40.0723C70.725 39.8793 70.561 39.6456 70.4494 39.3861C70.3331 39.1264 70.2729 38.845 70.2729 38.5604C70.2729 38.1167 70.4222 37.6818 70.7208 37.2557C71.2915 36.4756 72.1336 36.0856 73.247 36.0856C73.3833 36.0856 73.5667 36.0902 73.7971 36.0996C74.0275 36.109 74.2474 36.1271 74.4569 36.1541L75.8697 36.2218C76.5518 36.206 77.2322 36.147 77.9068 36.0451L77.3617 37.1054L75.7872 36.9939C75.9857 37.1263 76.1682 37.2815 76.3307 37.4563C76.6219 37.7716 76.7905 38.1811 76.8056 38.6103C76.8207 39.0394 76.6815 39.4598 76.4132 39.7949C76.2471 39.9778 76.0655 40.1461 75.8705 40.2977C75.6697 40.4627 75.4509 40.6043 75.2181 40.7197C74.9647 40.8557 74.8379 40.9691 74.8379 41.0599C74.8428 41.0987 74.8571 41.1356 74.8795 41.1676C74.9019 41.1995 74.9318 41.2255 74.9666 41.2432C75.0678 41.309 75.1793 41.3573 75.2965 41.3861C76.0662 41.5512 76.5886 41.685 76.8635 41.7874C77.1118 41.8733 77.3374 42.0145 77.5233 42.2003C77.7052 42.4066 77.8396 42.6504 77.9167 42.9146C78.0154 43.2104 78.0661 43.5201 78.0668 43.832C78.0668 44.7205 77.6751 45.4254 76.8915 45.9467C76.108 46.4681 75.0551 46.7318 73.7327 46.7378C72.6375 46.7378 71.7388 46.5317 71.0366 46.1193C70.3345 45.707 69.9837 45.1788 69.9843 44.5347C69.9843 43.8003 70.5682 43.4331 71.736 43.4331L72.3373 43.429Z" fill="#545456"/>
<path d="M79.2372 43.0888C79.3554 43.0074 79.4631 42.9117 79.558 42.8039C79.6249 42.7082 79.6764 42.6026 79.7106 42.491C79.7284 42.4402 79.74 42.3876 79.7452 42.3341C79.7572 42.2692 79.7644 42.2035 79.7667 42.1375V37.6363C79.7667 37.1651 79.7433 36.8521 79.6966 36.6974C79.6498 36.5428 79.5102 36.3435 79.2776 36.0996L79.9564 36.1401C80.1166 36.1404 80.2763 36.1221 80.4322 36.0856C80.5856 36.0501 80.8257 35.9815 81.1523 35.8816V42.1375C81.1543 42.2599 81.1749 42.3813 81.2133 42.4976C81.2421 42.6038 81.2878 42.7047 81.3485 42.7965C81.4394 42.9049 81.5421 43.003 81.6545 43.0888H79.2372ZM79.5357 34.4539C79.5322 34.3282 79.5543 34.2031 79.6007 34.0862C79.647 33.9694 79.7167 33.8632 79.8054 33.7743C79.8929 33.6848 79.9979 33.6144 80.1139 33.5675C80.2299 33.5206 80.3542 33.4982 80.4793 33.5018C80.5957 33.5003 80.7111 33.5246 80.8171 33.5728C80.9232 33.6211 81.0173 33.6921 81.0929 33.7809C81.2577 33.9656 81.3461 34.2062 81.3403 34.4539C81.3419 34.5712 81.3187 34.6876 81.2722 34.7953C81.2257 34.903 81.157 34.9997 81.0706 35.079C80.9833 35.1638 80.8799 35.2304 80.7667 35.2749C80.6534 35.3194 80.5324 35.3409 80.4108 35.3382C80.2971 35.339 80.1844 35.3171 80.0792 35.2739C79.974 35.2306 79.8784 35.1669 79.798 35.0864C79.7122 35.0055 79.6445 34.9073 79.5993 34.7982C79.5541 34.6892 79.5324 34.5719 79.5357 34.4539Z" fill="#545456"/>
<path d="M82.9988 37.0649V36.5207L83.2025 36.5348C83.3319 36.5385 83.4607 36.5156 83.581 36.4676C83.7013 36.4196 83.8105 36.3475 83.9019 36.2557C84.0797 36.0831 84.2106 35.8679 84.2821 35.6306C84.3608 35.3081 84.3952 34.9764 84.3844 34.6446V34.1038H85.1967V36.1434H87.0442V37.5984L86.9345 37.4728L86.7019 37.2639C86.5469 37.1335 86.2994 37.0682 85.9596 37.0682H85.1967V41.036C85.1967 41.2997 85.238 41.4998 85.3205 41.6363C85.5212 42.036 85.9728 42.2358 86.6755 42.2358L86.923 42.2218L86.0669 43.3101C85.831 43.2462 85.6363 43.1912 85.4829 43.145C85.33 43.0995 85.1802 43.0443 85.0343 42.9798C84.7867 42.8745 84.5592 42.727 84.3621 42.5438C84.1765 42.3759 84.0382 42.162 83.9613 41.9237C83.879 41.6102 83.8426 41.2864 83.8532 40.9625V37.0649H82.9988Z" fill="#545456"/>
<path d="M88.8801 37.6768L89.9803 36.1401C90.3114 36.0435 90.6541 35.9932 90.9989 35.9906C91.4345 35.9842 91.8688 36.0398 92.2888 36.1558C92.5959 36.229 92.8796 36.3787 93.1136 36.5909C93.2975 36.7282 93.4427 36.9108 93.535 37.1211C93.5977 37.2928 93.6299 37.5885 93.6299 38.0046V41.1598C93.6299 41.4505 93.6587 41.6553 93.7181 41.7858C93.7951 41.928 93.9239 42.0351 94.0777 42.0847C94.2427 42.1667 94.5143 42.2075 94.8926 42.2069H95.0286L94.2179 43.2135L93.893 43.254C93.4711 43.2543 93.0633 43.1024 92.7441 42.8262C92.4021 42.5411 92.2311 42.2168 92.2311 41.8535V39.4852L91.8369 39.6347L91.135 39.785C90.8718 39.8256 90.6127 39.8892 90.3605 39.9749C90.1635 40.0407 89.9725 40.1235 89.7898 40.2226C89.4819 40.4125 89.328 40.7117 89.328 41.1202C89.3224 41.2826 89.3559 41.444 89.4257 41.5907C89.4954 41.7374 89.5994 41.8652 89.7288 41.9633C89.996 42.1714 90.3605 42.2754 90.8224 42.2754C90.9994 42.2784 91.1764 42.2685 91.3519 42.2457C91.4789 42.2259 91.7371 42.1634 92.1263 42.0583L91.3519 43.0938C90.8631 43.2374 90.4782 43.3093 90.1973 43.3093C89.582 43.3093 89.0366 43.0759 88.5609 42.609C88.0853 42.1422 87.8475 41.614 87.8475 41.0244C87.8475 40.0005 88.6423 39.3479 90.2319 39.0666L90.9948 38.9303C91.4308 38.8483 91.7464 38.7382 91.9416 38.6C92.0341 38.5383 92.1095 38.4541 92.1609 38.3554C92.2122 38.2566 92.2378 38.1465 92.2352 38.0352C92.2405 37.9071 92.214 37.7797 92.158 37.6644C92.102 37.5491 92.0183 37.4495 91.9144 37.3746C91.7005 37.2149 91.4118 37.1354 91.0484 37.1359C90.8089 37.1389 90.5708 37.171 90.3391 37.2317C90.0389 37.2835 89.5526 37.4318 88.8801 37.6768Z" fill="#545456"/>
<path d="M95.8749 43.0888C95.9381 43.0337 96.0016 42.9817 96.0654 42.9327C96.1213 42.8912 96.1675 42.838 96.2007 42.7767C96.2627 42.6879 96.3088 42.589 96.3367 42.4843C96.3722 42.3673 96.3905 42.2458 96.3912 42.1235V34.4679C96.401 34.2582 96.373 34.0484 96.3087 33.8486C96.2183 33.6585 96.0949 33.486 95.9442 33.3391L96.4877 33.3523C96.692 33.3587 96.8965 33.3474 97.0988 33.3184C97.2088 33.2964 97.4125 33.2353 97.7099 33.1351V41.8246C97.7091 41.9405 97.716 42.0564 97.7306 42.1714C97.7449 42.2811 97.7653 42.39 97.7916 42.4976C97.8148 42.6014 97.8561 42.7004 97.9137 42.7899C98.0019 42.905 98.1073 43.0059 98.2262 43.0888H95.8749Z" fill="#545456"/>
<path d="M104.078 41.0904C104.431 41.3073 104.69 41.4546 104.852 41.5322C105.108 41.6427 105.371 41.7357 105.64 41.8105C105.89 41.8958 106.147 41.9596 106.408 42.0012C106.639 42.0423 106.873 42.065 107.107 42.069C107.678 42.069 108.16 41.9239 108.554 41.6338C108.947 41.3437 109.144 40.9858 109.144 40.5603C109.156 40.2408 109.045 39.9289 108.833 39.69C108.524 39.4004 108.08 39.1466 107.501 38.9286L106.182 38.4117C104.862 37.9162 104.202 37.0957 104.202 35.9501C104.202 35.1243 104.542 34.4582 105.221 33.9518C105.9 33.4453 106.792 33.1915 107.896 33.1904C108.521 33.1953 109.142 33.282 109.744 33.4481V35.1772C109.31 34.8419 108.947 34.6151 108.657 34.4968C108.332 34.3729 107.986 34.3129 107.638 34.3201C107.058 34.3201 106.591 34.4516 106.236 34.7148C106.068 34.8319 105.932 34.9888 105.84 35.1715C105.747 35.3543 105.702 35.5571 105.707 35.7618C105.706 35.9138 105.738 36.0643 105.798 36.2036C105.859 36.3429 105.948 36.4681 106.06 36.5711C106.295 36.8023 106.684 37.0313 107.228 37.2581L108.45 37.761C109.265 38.0869 109.842 38.4428 110.182 38.8287C110.522 39.2146 110.692 39.7062 110.692 40.3035C110.692 41.2014 110.329 41.9267 109.605 42.4794C108.88 43.0321 107.925 43.3087 106.739 43.3092C106.403 43.3054 106.067 43.2828 105.734 43.2415C105.444 43.1953 105.245 43.159 105.136 43.1325C104.947 43.0776 104.761 43.0131 104.578 42.9393L104.078 41.0904Z" fill="#545456"/>
<path d="M117.538 36.1945V37.7717L117.334 37.5818C116.945 37.2823 116.45 37.1326 115.849 37.1326C115.19 37.1326 114.651 37.3685 114.234 37.8403C113.816 38.3121 113.608 38.9239 113.609 39.6759C113.609 40.4554 113.867 41.0902 114.383 41.5801C114.899 42.0701 115.574 42.3148 116.407 42.3142C116.875 42.3142 117.34 42.2303 117.779 42.0665C118.232 41.9013 118.566 41.6905 118.783 41.434L117.738 43.0929C117.48 43.176 117.217 43.2419 116.95 43.2903C116.704 43.3316 116.456 43.352 116.207 43.3514C115.03 43.3514 114.052 43.0114 113.273 42.3316C112.494 41.6517 112.105 40.7984 112.105 39.7717C112.105 38.6845 112.494 37.7869 113.273 37.0789C114.052 36.371 115.039 36.0176 116.235 36.0187C116.436 36.0161 116.638 36.0252 116.838 36.0459C117.074 36.0816 117.308 36.1313 117.538 36.1945Z" fill="#545456"/>
<path d="M119.806 33.3391L120.391 33.3523C120.581 33.3577 120.772 33.3447 120.961 33.3135C121.187 33.2508 121.41 33.173 121.626 33.0806V36.8197C121.699 36.7478 121.774 36.6751 121.85 36.6025C121.927 36.5298 122.015 36.453 122.115 36.3713C122.523 36.0635 123.07 35.9094 123.759 35.9088C124.218 35.9066 124.673 35.9967 125.097 36.1739C125.511 36.3453 125.857 36.6489 126.081 37.0377C126.267 37.3644 126.361 37.7354 126.353 38.1111V41.827C126.345 42.0475 126.373 42.2678 126.435 42.4794C126.454 42.5911 126.491 42.6991 126.544 42.7989C126.622 42.9115 126.719 43.0103 126.829 43.0913H124.466C124.71 42.892 124.86 42.688 124.914 42.4794C124.94 42.4207 124.958 42.3592 124.969 42.2961C124.977 42.2353 124.982 42.1741 124.982 42.1127V38.6966C124.992 38.4476 124.974 38.1983 124.928 37.9534C124.874 37.7915 124.79 37.6413 124.68 37.5108C124.405 37.1662 123.984 36.9942 123.417 36.9947C123.109 36.9927 122.804 37.0528 122.52 37.1714C122.27 37.2664 122.05 37.4259 121.882 37.6338C121.775 37.757 121.704 37.9073 121.678 38.0682C121.635 38.3413 121.617 38.6176 121.624 38.894V42.4769C121.672 42.6767 121.808 42.8807 122.031 43.0888H119.804C120.024 42.9082 120.156 42.7293 120.198 42.552C120.241 42.3945 120.264 42.2322 120.266 42.069V34.8073C120.266 34.3179 120.241 34.003 120.192 33.8626C120.143 33.7222 120.015 33.5472 119.806 33.3391Z" fill="#545456"/>
<path d="M128.472 39.5397C128.472 38.4342 128.843 37.5369 129.586 36.8477C130.329 36.1585 131.293 35.8138 132.479 35.8138C133.611 35.8138 134.525 36.1585 135.222 36.8477C135.919 37.5369 136.268 38.4568 136.268 39.6074C136.268 40.7684 135.82 41.7296 134.924 42.4909C134.271 43.053 133.388 43.334 132.275 43.334C131.134 43.334 130.215 42.9894 129.517 42.3002C128.82 41.6109 128.472 40.6908 128.472 39.5397ZM129.898 39.5124V39.6074C129.898 40.4056 130.147 41.0585 130.645 41.5661C131.143 42.0736 131.768 42.3274 132.519 42.3274C132.834 42.3328 133.146 42.2656 133.431 42.1312C133.716 41.9968 133.966 41.7986 134.162 41.552C134.598 41.0362 134.815 40.3792 134.815 39.5809C134.815 38.819 134.579 38.1799 134.109 37.6635C133.886 37.4127 133.611 37.2134 133.304 37.0795C132.997 36.9456 132.664 36.8803 132.329 36.8882C131.623 36.8882 131.041 37.1359 130.584 37.6313C130.126 38.1268 129.898 38.7538 129.898 39.5124H129.898Z" fill="#545456"/>
<path d="M137.776 39.5397C137.776 38.4342 138.147 37.5369 138.889 36.8477C139.631 36.1585 140.596 35.8138 141.782 35.8138C142.914 35.8138 143.828 36.1585 144.525 36.8477C145.223 37.5369 145.57 38.4568 145.569 39.6074C145.569 40.7684 145.12 41.7296 144.223 42.4909C143.572 43.053 142.689 43.334 141.575 43.334C140.435 43.334 139.516 42.9894 138.818 42.3002C138.12 41.6109 137.773 40.6908 137.776 39.5397ZM139.202 39.5124V39.6074C139.202 40.4056 139.451 41.0585 139.949 41.5661C140.447 42.0736 141.072 42.3274 141.823 42.3274C142.138 42.3325 142.449 42.2652 142.734 42.1308C143.019 41.9964 143.27 41.7984 143.466 41.552C143.901 41.0362 144.118 40.3792 144.118 39.5809C144.118 38.819 143.883 38.1799 143.412 37.6635C143.189 37.4128 142.915 37.2136 142.608 37.0797C142.3 36.9458 141.968 36.8805 141.633 36.8882C140.926 36.8882 140.345 37.1359 139.888 37.6313C139.431 38.1268 139.202 38.7538 139.202 39.5124Z" fill="#545456"/>
<path d="M147.229 43.0888C147.292 43.0351 147.355 42.9831 147.419 42.9327C147.475 42.8915 147.521 42.8382 147.555 42.7767C147.617 42.6879 147.663 42.589 147.691 42.4843C147.726 42.3672 147.744 42.2457 147.745 42.1235V34.4679C147.755 34.2582 147.727 34.0484 147.663 33.8486C147.572 33.6587 147.449 33.4862 147.298 33.3391L147.842 33.3523C148.046 33.3587 148.25 33.3474 148.453 33.3184C148.563 33.2964 148.766 33.2353 149.064 33.1351V41.8246C149.063 41.9405 149.07 42.0564 149.085 42.1714C149.099 42.2811 149.119 42.39 149.146 42.4976C149.169 42.6014 149.21 42.7004 149.268 42.7899C149.356 42.905 149.461 43.0059 149.58 43.0888H147.229Z" fill="#545456"/>
<path d="M55.5222 28.9015C56.077 28.4479 56.4468 28.0581 56.6315 27.7322C56.6865 27.5671 56.7415 27.3675 56.7965 27.1335C56.8476 26.9287 56.8753 26.7187 56.8789 26.5076V11.7629C56.8789 11.2553 56.8157 10.8562 56.6892 10.5656C56.5628 10.2749 56.2549 9.84881 55.7655 9.28729H67.176V13.3674C66.509 12.3709 65.7607 11.8722 64.931 11.8711H60.4938V17.1477H65.4374V20.6018C65.0772 20.1845 64.699 19.8944 64.3025 19.7315C63.9061 19.5685 63.3563 19.4859 62.653 19.4837H60.4922V26.2277C61.2498 26.3378 61.8321 26.4104 62.239 26.4457C62.6448 26.4828 63.119 26.5002 63.6609 26.5002H65.1231C66.1161 26.4071 66.9016 26.2481 67.4795 26.0229C68.0573 25.7977 68.7708 25.3849 69.6197 24.7843L68.2069 28.9015H55.5222Z" fill="#183661"/>
<path d="M71.3047 28.9015C71.5296 28.6934 71.7428 28.4729 71.943 28.2409C72.0753 28.0917 72.1894 27.9273 72.2828 27.7512C72.3724 27.5551 72.4407 27.35 72.4866 27.1393C72.5407 26.9326 72.5714 26.7204 72.5781 26.5068L72.6606 11.7662C72.6587 11.3457 72.5747 10.9297 72.4132 10.5416C72.3075 10.357 72.1892 10.1799 72.0593 10.0115C71.8517 9.7543 71.6247 9.51331 71.3806 9.29059H79.1225C82.5997 9.29059 85.3252 10.134 87.2991 11.8207C89.273 13.5074 90.2599 15.8471 90.2599 18.8396C90.2599 20.3992 89.9883 21.8272 89.4451 23.1237C88.9178 24.3973 88.0984 25.5289 87.0533 26.4267C85.1888 28.0782 82.5177 28.9039 79.04 28.9039L71.3047 28.9015ZM76.2763 11.8752V26.2863C76.8718 26.3771 77.2916 26.4322 77.5357 26.4515C77.7798 26.4707 78.1647 26.4798 78.6903 26.4787C81.1096 26.4787 83.0151 25.8079 84.4067 24.4663C85.7983 23.1248 86.4939 21.2663 86.4933 18.8908C86.4933 16.6057 85.7752 14.8243 84.3391 13.5465C82.9029 12.2688 80.8924 11.6289 78.3076 11.6267C77.7837 11.6267 77.4406 11.6357 77.2784 11.6539C76.9408 11.7089 76.6063 11.7814 76.2763 11.8711V11.8752Z" fill="#183661"/>
<path d="M93.1144 9.28729H99.2258C98.7447 9.72274 98.4118 10.1122 98.227 10.4557C98.0323 10.8424 97.9371 11.2715 97.9499 11.7043V22.378C97.9499 23.7355 98.3675 24.7856 99.2027 25.5283C100.038 26.2709 101.227 26.6419 102.771 26.6414C104.296 26.6414 105.458 26.2613 106.258 25.501C107.058 24.7408 107.458 23.6365 107.457 22.1881V11.6498C107.457 10.8174 107.095 10.0299 106.371 9.28729H112.265C111.776 9.72274 111.45 10.1219 111.287 10.4846C111.203 10.6828 111.135 10.8874 111.083 11.0965C111.037 11.2971 111.014 11.5025 111.016 11.7084V26.5068C111.016 27.0149 111.12 27.4366 111.328 27.7718C111.537 28.1071 111.931 28.4836 112.513 28.9015H107.46V27.3193L106.78 27.828C106.144 28.2937 105.347 28.6604 104.389 28.9279C103.432 29.1958 102.442 29.3313 101.448 29.3309C100.287 29.3434 99.1333 29.1407 98.0456 28.733C97.0113 28.335 96.1948 27.7735 95.5961 27.0485C95.1421 26.521 94.8079 25.9012 94.6162 25.2318C94.4337 24.5795 94.343 23.6287 94.3441 22.3797V11.7051C94.3441 11.2526 94.2718 10.8769 94.1272 10.5779C94.0226 10.3481 93.895 10.1295 93.7461 9.9256C93.5488 9.70009 93.3378 9.48692 93.1144 9.28729Z" fill="#183661"/>
<path d="M114.414 24.5183C114.918 24.8638 115.439 25.1816 115.977 25.4704C116.472 25.7126 116.985 25.9171 117.511 26.0823C118.09 26.2757 118.68 26.4345 119.277 26.558C119.786 26.664 120.305 26.7194 120.825 26.7231C121.93 26.7231 122.84 26.4556 123.555 25.9205C124.27 25.3854 124.628 24.7099 124.627 23.8941C124.627 23.5673 124.548 23.2455 124.396 22.956C124.214 22.6269 123.958 22.3443 123.649 22.1303C123.253 21.8429 122.84 21.5793 122.412 21.3408C121.934 21.0709 121.438 20.8347 120.927 20.634L118.536 19.6274C117.358 19.1374 116.444 18.4576 115.793 17.5878C115.157 16.7597 114.815 15.7429 114.822 14.6985C114.822 12.9919 115.509 11.6228 116.884 10.5911C118.258 9.5595 120.078 9.04285 122.344 9.0412H123.62C124.344 9.13313 124.797 9.19754 124.979 9.23443C125.16 9.27131 125.604 9.38141 126.31 9.56473V13.2294C126.086 13.0329 125.85 12.8503 125.604 12.6828C125.368 12.5231 125.141 12.3687 124.924 12.2195C124.091 11.7147 123.113 11.462 121.991 11.4615C120.922 11.4615 120.052 11.6979 119.383 12.1708C118.713 12.6437 118.378 13.2531 118.378 13.999C118.378 14.6354 118.636 15.1859 119.152 15.6506C119.668 16.1152 120.587 16.6288 121.909 17.1914L124.218 18.146C124.921 18.4811 125.585 18.8929 126.198 19.3739C127.517 20.411 128.177 21.6659 128.177 23.1385C128.177 24.9392 127.425 26.4217 125.922 27.586C124.419 28.7503 122.499 29.3322 120.163 29.3317C119.783 29.3317 119.475 29.3218 119.24 29.3044C119.005 29.2871 118.624 29.245 118.099 29.1822C117.573 29.1195 117.229 29.0683 117.067 29.0319C116.533 28.9192 116.007 28.7739 115.491 28.5968L114.414 24.5183Z" fill="#157ABF"/>
<path d="M130.713 28.9015C131.278 28.4479 131.655 28.0581 131.844 27.7322C132.018 27.3479 132.105 26.9297 132.099 26.5076V11.7629C132.105 11.5314 132.096 11.2997 132.071 11.0693C132.03 10.909 131.971 10.7538 131.895 10.6069C131.795 10.3975 131.676 10.1972 131.541 10.0082C131.353 9.75518 131.149 9.5144 130.93 9.28729H135.195L146.17 23.1856V11.7629C146.17 11.2917 146.111 10.9245 145.993 10.6614C145.899 10.4428 145.786 10.2333 145.654 10.0354C145.544 9.88184 145.335 9.63246 145.028 9.28729H150C149.547 9.83064 149.248 10.2609 149.103 10.5779C148.947 10.9514 148.873 11.3541 148.886 11.7588V29.7404C148.54 29.6758 148.199 29.585 147.867 29.4688C147.695 29.3961 147.346 29.188 146.821 28.8445C146.513 28.6452 146.251 28.4641 146.034 28.3012C145.76 28.0881 145.502 27.857 145.259 27.6092C144.858 27.1912 144.482 26.7501 144.133 26.288C144.005 26.1608 143.887 26.0248 143.779 25.8809C143.598 25.6634 143.471 25.5005 143.399 25.392L134.787 14.6159V26.558C134.787 26.9548 134.88 27.3461 135.06 27.7C135.24 28.0633 135.63 28.4625 136.227 28.8974L130.713 28.9015Z" fill="#157ABF"/>
<path d="M41.3844 0L21.8337 19.5729L25.009 5.34264L41.3844 0Z" fill="#E6E6E5"/>
<path d="M41.3843 0L25.0089 5.34264L26.1941 0.0231212L41.3843 0Z" fill="#B2B3B3"/>
<path d="M26.1941 0.0231323L25.0089 5.34265L11.0162 9.90909L0 0.0635944L26.1941 0.0231323Z" fill="#989898"/>
<path d="M6.46523 15.1427L0 13.279V0.0635986L6.46523 15.1427Z" fill="#2C61AD"/>
<path d="M12.4092 29.0105L0 41.434V13.279L6.46523 15.1427L12.4092 29.0105Z" fill="#183661"/>
<path d="M31.4461 43.1953H1.75922L16.1115 32.7164L30.1538 37.2928L31.4461 43.1953Z" fill="#005942"/>
<path d="M48.2678 43.1953H31.4461L30.1537 37.2928L48.2678 43.1953Z" fill="#00A57C"/>
<path d="M48.2677 9.23938L43.5667 19.4218L27.3553 24.5076L48.2677 9.23938Z" fill="#157ABF"/>
<path d="M48.2677 9.23938V17.947L43.5667 19.4218L48.2677 9.23938Z" fill="#015382"/>
<path d="M48.2677 17.947V43.1953L37.1691 33.2779L43.5667 19.4218L48.2677 17.947Z" fill="#064A76"/>
<path d="M30.1537 37.2928L16.1115 32.7165L27.3553 24.5076L30.1537 37.2928Z" fill="#00664C"/>
<path d="M21.8336 19.5745L12.4092 29.0104L6.46521 15.1427L21.8336 19.5745Z" fill="#1A3E6E"/>
<path d="M43.5667 19.4218L37.1691 33.278L27.3553 24.5076L43.5667 19.4218Z" fill="#015382"/>
<path d="M25.009 5.34265L21.8337 19.5729L11.0162 9.90743L25.009 5.34265Z" fill="#CCCBCB"/>
<path d="M48.2677 43.1953L30.1537 37.2928L27.3553 24.5076L37.1691 33.278L48.2677 43.1953Z" fill="#5BBF9B"/>
<path d="M21.8336 19.5729V19.5746L6.46523 15.1427L0 0.0635986L11.0162 9.90744L21.8336 19.5729Z" fill="#4E7DBE"/>
</g>
<defs>
<clipPath id="clip0_111:241">
<rect width="150" height="46.7337" fill="white"/>
</clipPath>
</defs>
</svg>
